<?xml version="1.0" encoding="UTF-8" standalone="no"?>
<!-- Created with Inkscape (http://www.inkscape.org/) -->

<svg
   width="64"
   height="64"
   id="svg3809"
   version="1.1"
   inkscape:version="1.2.2 (b0a8486541, 2022-12-01)"
   sodipodi:docname="anon-about.svg"
   xmlns:inkscape="http://www.inkscape.org/namespaces/inkscape"
   xmlns:sodipodi="http://sodipodi.sourceforge.net/DTD/sodipodi-0.dtd"
   xmlns:xlink="http://www.w3.org/1999/xlink"
   xmlns="http://www.w3.org/2000/svg"
   xmlns:svg="http://www.w3.org/2000/svg"
   xmlns:rdf="http://www.w3.org/1999/02/22-rdf-syntax-ns#"
   xmlns:cc="http://creativecommons.org/ns#"
   xmlns:dc="http://purl.org/dc/elements/1.1/">
  <defs
     id="defs3811">
    <linearGradient
       inkscape:collect="always"
       id="linearGradient4682">
      <stop
         style="stop-color:#55ddff;stop-opacity:1;"
         offset="0"
         id="stop4678" />
      <stop
         style="stop-color:#5541ff;stop-opacity:1"
         offset="1"
         id="stop4680" />
    </linearGradient>
    <linearGradient
       inkscape:collect="always"
       xlink:href="#linearGradient4682"
       id="linearGradient4684"
       x1="743.54026"
       y1="186.78703"
       x2="932.13885"
       y2="187.67091"
       gradientUnits="userSpaceOnUse" />
    <filter
       inkscape:collect="always"
       style="color-interpolation-filters:sRGB"
       id="filter5292"
       x="-0.37095107"
       width="1.7419021"
       y="-1.4762339"
       height="3.9524677">
      <feGaussianBlur
         inkscape:collect="always"
         stdDeviation="2.6640049"
         id="feGaussianBlur5294" />
    </filter>
  </defs>
  <sodipodi:namedview
     id="base"
     pagecolor="#ffffff"
     bordercolor="#666666"
     borderopacity="1.0"
     inkscape:pageopacity="0.0"
     inkscape:pageshadow="2"
     inkscape:zoom="5.6568543"
     inkscape:cx="57.187261"
     inkscape:cy="27.488776"
     inkscape:document-units="px"
     inkscape:current-layer="g4654"
     showgrid="false"
     fit-margin-top="0"
     fit-margin-left="0"
     fit-margin-right="0"
     fit-margin-bottom="0"
     inkscape:snap-bbox="true"
     inkscape:window-width="1366"
     inkscape:window-height="710"
     inkscape:window-x="0"
     inkscape:window-y="0"
     inkscape:window-maximized="1"
     inkscape:showpageshadow="false"
     borderlayer="true"
     showguides="false"
     inkscape:object-nodes="true"
     inkscape:pagecheckerboard="0"
     inkscape:deskcolor="#d1d1d1">
    <inkscape:grid
       type="xygrid"
       id="grid3830"
       empspacing="5"
       visible="true"
       enabled="true"
       snapvisiblegridlinesonly="true"
       originx="21.000002"
       originy="20.999999" />
    <sodipodi:guide
       position="-2.265625e-06,9.9121092e-07"
       orientation="-64,0"
       id="guide4172"
       inkscape:locked="false" />
    <sodipodi:guide
       position="-2.265625e-06,64.000001"
       orientation="0,64"
       id="guide4174"
       inkscape:locked="false" />
    <sodipodi:guide
       position="63.999998,64.000001"
       orientation="64,0"
       id="guide4176"
       inkscape:locked="false" />
    <sodipodi:guide
       position="63.999998,9.9121092e-07"
       orientation="0,-64"
       id="guide4178"
       inkscape:locked="false" />
    <sodipodi:guide
       position="2.9999977,6.000001"
       orientation="0,58"
       id="guide4182"
       inkscape:locked="false" />
    <sodipodi:guide
       position="60.999998,58.000001"
       orientation="0,-58"
       id="guide4186"
       inkscape:locked="false" />
    <sodipodi:guide
       position="5.9999977,58.000001"
       orientation="52,0"
       id="guide4197"
       inkscape:locked="false" />
    <sodipodi:guide
       position="57.999998,6.000001"
       orientation="-52,0"
       id="guide4201"
       inkscape:locked="false" />
    <sodipodi:guide
       position="19.999998,20.000001"
       orientation="-24,0"
       id="guide4323"
       inkscape:locked="false" />
    <sodipodi:guide
       position="43.999998,44.000001"
       orientation="24,0"
       id="guide4327"
       inkscape:locked="false" />
    <sodipodi:guide
       position="43.999998,20.000001"
       orientation="0,-24"
       id="guide4329"
       inkscape:locked="false" />
    <sodipodi:guide
       position="19.999998,51.000001"
       orientation="24,0"
       id="guide4245"
       inkscape:locked="false" />
    <sodipodi:guide
       position="19.999998,27.000001"
       orientation="0,24"
       id="guide4247"
       inkscape:locked="false" />
    <sodipodi:guide
       position="43.999998,27.000001"
       orientation="-24,0"
       id="guide4249"
       inkscape:locked="false" />
    <sodipodi:guide
       position="43.999998,51.000001"
       orientation="0,-24"
       id="guide4251"
       inkscape:locked="false" />
  </sodipodi:namedview>
  <metadata
     id="metadata3814">
    <rdf:RDF>
      <cc:Work
         rdf:about="">
        <dc:format>image/svg+xml</dc:format>
        <dc:type
           rdf:resource="http://purl.org/dc/dcmitype/StillImage" />
        <dc:title />
      </cc:Work>
    </rdf:RDF>
  </metadata>
  <g
     inkscape:label="Layer 1"
     inkscape:groupmode="layer"
     id="layer1"
     transform="translate(-736.85718,-157.93361)"
     style="display:inline" />
  <g
     inkscape:groupmode="layer"
     id="layer4"
     inkscape:label="Layer 2" />
  <g
     inkscape:groupmode="layer"
     id="layer3"
     inkscape:label="Layer 3">
    <g
       id="layer1-3"
       transform="matrix(0.34336844,0,0,0.29324583,-3.8273022,6.2016124)"
       style="fill:#ad0a0a;fill-opacity:1">
      <path
         id="path0"
         d="m 98.41545,32.193138 c -0.09893,0.1105 -0.873225,0.236947 -1.720826,0.287282 -0.8471,0.0491 -1.688116,0.164514 -1.868605,0.25168 -0.180437,0.08594 -0.623328,0.181701 -0.983823,0.20871 -0.88384,0.06139 -1.030336,-0.157141 2.815702,4.307033 3.612422,4.192978 3.866782,4.381431 3.531032,2.618079 -0.10863,-0.568427 -0.198634,-1.547521 -0.200844,-2.176965 -0.002,-0.629812 -0.0841,-1.504429 -0.18177,-1.944561 -0.0977,-0.439518 -0.225103,-1.439115 -0.283094,-2.221531 -0.108622,-1.467967 -0.522001,-1.965186 -1.107731,-1.330342 m 2.600269,-0.06139 c -0.15224,0.06139 -0.11964,0.222215 0.12304,0.591753 0.18105,0.275005 0.32912,0.563517 0.32912,0.639634 0,0.07367 0.13476,0.303242 0.29946,0.505815 0.39858,0.488626 2.50693,4.112809 2.84976,4.899031 0.14954,0.341303 0.40872,0.941649 0.57645,1.332796 0.16774,0.390411 0.51846,1.070558 0.77947,1.510569 1.3656,2.298875 3.53984,6.332622 4.21537,7.81974 2.00969,4.423541 2.26715,5.06109 2.26715,5.613434 0,0.321657 0.0647,0.628583 0.14296,0.681376 0.0782,0.0491 0.18716,0.337618 0.24197,0.632266 0.0732,0.402689 0.18935,0.536508 0.45924,0.536508 0.19778,0 0.47649,0.110499 0.61894,0.245541 0.14246,0.135055 1.09881,0.457933 2.1256,0.715752 1.02679,0.259044 2.07163,0.627356 2.32157,0.820107 0.24989,0.192748 0.53261,0.351123 0.6282,0.351123 0.30043,0 1.58547,0.84466 2.83473,1.862918 0.6618,0.538962 1.25235,0.980936 1.31296,0.980936 0.094,0 1.43504,2.029272 2.05969,3.117142 0.10986,0.191522 0.64273,1.101251 1.1833,2.019696 1.16791,1.985321 1.15815,2.040446 -0.27283,1.528369 -4.63873,-1.659242 -7.56282,-1.737324 -10.30332,-0.275006 -1.31517,0.70102 -1.53061,1.104934 -1.4262,2.674065 0.0427,0.634722 0.14295,1.231142 0.22289,1.323709 0.0806,0.09823 0.14636,0.71821 0.14636,1.389272 0,0.671553 0.083,1.388902 0.18531,1.595032 0.17348,0.352352 0.37076,1.911415 0.57645,4.562151 0.0853,1.102479 0.45523,1.984216 1.21614,2.901311 0.14063,0.169425 0.57779,0.8508 0.971,1.513515 1.78456,3.006402 2.57419,3.041883 9.02267,0.403915 0.76664,-0.313066 1.83673,-0.729258 2.37773,-0.923235 0.54154,-0.193977 1.13166,-0.421101 1.31209,-0.50213 0.18043,-0.08594 0.84452,-0.348669 1.47574,-0.592982 0.63175,-0.243086 1.70183,-0.656822 2.3782,-0.917095 0.67644,-0.260273 2.00484,-0.78082 2.95198,-1.156498 0.94708,-0.374451 2.45959,-0.973569 3.36158,-1.329482 0.90202,-0.356032 2.00925,-0.794325 2.46005,-0.973568 0.45071,-0.179246 1.48414,-0.579477 2.29591,-0.888857 0.81168,-0.309383 1.6235,-0.631042 1.80398,-0.714527 0.18045,-0.08594 0.86309,-0.358489 1.5169,-0.610169 0.65384,-0.251679 1.72393,-0.665415 2.37774,-0.917094 0.65385,-0.25168 1.33686,-0.529141 1.51691,-0.613852 0.18045,-0.08594 0.95551,-0.39041 1.72215,-0.677694 1.50009,-0.562288 2.72148,-1.052142 4.50956,-1.807303 0.18045,-0.07366 0.54936,-0.21976 0.82012,-0.319203 1.99246,-0.731713 5.92957,-2.3141 6.763,-2.71777 0.38223,-0.185383 0.74005,-0.336392 0.79534,-0.336392 0.055,0 0.33217,-0.110497 0.61661,-0.249222 0.28408,-0.137506 6.14554,4.017576 6.57292,3.849381 0,0 -3.97574,-5.078315 -5.04319,-6.199454 -0.51224,-0.537735 -0.93121,-1.039865 -0.93121,-1.115983 0,-0.07366 -0.18434,-0.371994 -0.40956,-0.655595 -0.22561,-0.284826 -0.41006,-0.584387 -0.41006,-0.666642 0,-0.08594 -0.44277,-0.67401 -0.98431,-1.314012 -0.54105,-0.639635 -0.98383,-1.272395 -0.98383,-1.404741 0,-0.132586 -0.11232,-0.24063 -0.25124,-0.24063 -0.13805,0 -0.30738,-0.163287 -0.37599,-0.364628 -0.0684,-0.201342 -0.30569,-0.462845 -0.52725,-0.583159 -0.22207,-0.122777 -0.4932,-0.414964 -0.60294,-0.656823 -0.31411,-0.691197 -4.32023,-4.846363 -5.04838,-5.235177 -0.36048,-0.192749 -1.15899,-0.871671 -1.77346,-1.509217 -0.61489,-0.637179 -1.21785,-1.199466 -1.33995,-1.247962 -0.12257,-0.0491 -0.69804,-0.579477 -1.27979,-1.179823 -0.58121,-0.600348 -1.34349,-1.232984 -1.69384,-1.406581 -0.34986,-0.173107 -0.79986,-0.472666 -0.99933,-0.666645 -0.19946,-0.192748 -0.50381,-0.439518 -0.67642,-0.547555 -0.1725,-0.110499 -0.72991,-0.49722 -1.2391,-0.864305 -0.50918,-0.367083 -0.98565,-0.666643 -1.05817,-0.666643 -0.0719,0 -0.30569,-0.200115 -0.5176,-0.444428 -0.21146,-0.244314 -0.47208,-0.444429 -0.57817,-0.444429 -0.1062,0 -0.40969,-0.219759 -0.67508,-0.488627 -0.55911,-0.567201 -2.13933,-1.472754 -2.56267,-1.468949 -0.15958,0.0015 -0.58256,-0.196432 -0.93964,-0.441974 -0.35744,-0.244313 -0.78605,-0.444428 -0.95293,-0.444428 -0.16712,0 -0.66666,-0.198888 -1.11029,-0.443201 -0.44377,-0.244313 -0.89667,-0.444429 -1.0069,-0.444429 -0.10986,-3.69e-4 -0.46267,-0.160836 -0.78386,-0.356036 -0.3212,-0.195204 -0.69231,-0.354806 -0.825,-0.354806 -0.13232,0 -0.24109,-0.08594 -0.24109,-0.178015 0,-0.09823 -0.12917,-0.178019 -0.28665,-0.179246 -0.15797,-3.68e-4 -0.49856,-0.122777 -0.75689,-0.266412 -0.25829,-0.146089 -0.57204,-0.265185 -0.69717,-0.265185 -0.12477,0 -0.22694,-0.07366 -0.22694,-0.17679 0,-0.09823 -0.28615,-0.178016 -0.63614,-0.178016 -0.36489,0 -0.72282,-0.110498 -0.84002,-0.266413 -0.11231,-0.146089 -0.33791,-0.266411 -0.50211,-0.266411 -0.16407,0 -0.34413,-0.08594 -0.39992,-0.178017 -0.0561,-0.09823 -0.277,-0.178017 -0.49197,-0.178017 -0.21448,0 -0.43619,-0.07366 -0.49197,-0.176789 -0.0562,-0.09823 -0.2703,-0.178017 -0.47646,-0.178017 -0.40568,0 -1.34393,-0.451796 -1.4979,-0.72189 -0.0525,-0.08594 -0.3074,-0.166968 -0.56754,-0.166968 -0.26015,0 -0.51797,-0.07366 -0.57376,-0.17679 -0.0561,-0.09823 -0.28274,-0.178018 -0.50381,-0.178018 -0.22157,0 -0.53092,-0.07366 -0.68742,-0.169423 -0.15662,-0.09823 -0.58,-0.299559 -0.94098,-0.459162 -0.3605,-0.15961 -0.78385,-0.3634 -0.94048,-0.453023 -0.15661,-0.08594 -0.61356,-0.163288 -1.01521,-0.163288 -0.40211,0 -0.7764,-0.08594 -0.83207,-0.178017 -0.0561,-0.09823 -0.38307,-0.176787 -0.72721,-0.176787 -0.35696,0 -0.71441,-0.110499 -0.83074,-0.266414 -0.12964,-0.169422 -0.49197,-0.266412 -0.99396,-0.266412 -0.43483,0 -0.8361,-0.07366 -0.89176,-0.178017 -0.0562,-0.09823 -0.42471,-0.178018 -0.81975,-0.178018 -0.39553,0 -0.76446,-0.08594 -0.82024,-0.178015 -0.0562,-0.09823 -0.34634,-0.17679 -0.64543,-0.17679 -0.29946,0 -0.63615,-0.122776 -0.74846,-0.267639 -0.14199,-0.185385 -0.51932,-0.266414 -1.2404,-0.266414 -0.56973,0 -1.0816,-0.07366 -1.13739,-0.176788 -0.0561,-0.09823 -0.31411,-0.178017 -0.57426,-0.178017 -0.25966,0 -0.51796,-0.08594 -0.57376,-0.178017 -0.0561,-0.09823 -0.34145,-0.17679 -0.63432,-0.17679 -0.29323,0 -0.67643,-0.122776 -0.85161,-0.2615 -0.31361,-0.257819 -12.09537,-0.400233 -12.65983,-0.153463 m -10.61033,1.291054 c -0.0513,0.08594 -0.4999,0.220987 -0.99578,0.287284 -0.49588,0.06139 -0.94183,0.192749 -0.99091,0.278689 -0.05,0.08594 -0.41323,0.157141 -0.80827,0.157141 -0.39553,0 -0.76445,0.08594 -0.82012,0.178018 -0.0562,0.09823 -0.53091,0.178017 -1.05548,0.178017 -0.6304,0 -1.02056,0.08594 -1.15021,0.256588 -0.10744,0.141185 -0.34377,0.281146 -0.5242,0.31061 -0.336694,0.06139 2.4649,2.806902 4.31048,4.231775 0.44326,0.341302 1.90795,1.559061 3.25541,2.703897 2.571528,2.18605 2.735198,2.263272 2.366719,1.115983 -0.12513,-0.390409 -0.22914,-1.021451 -0.230477,-1.400811 -0.0013,-0.379361 -0.07447,-0.979709 -0.16138,-1.332674 C 93.254082,38.988347 92.40747,35.261404 92.26896,34.525026 92.0557,33.39431 90.83479,32.674509 90.40568,33.427459 m -8.206904,2.145413 c -0.0561,0.09823 -0.27697,0.178017 -0.49197,0.178017 -0.21498,0 -0.42958,0.07366 -0.47732,0.152236 -0.0476,0.08594 -0.51224,0.200116 -1.03204,0.257818 -0.51981,0.06139 -0.97101,0.190295 -1.00238,0.292194 -0.0317,0.09823 -0.19459,0.186611 -0.36184,0.186611 -0.16773,0 -0.35036,0.08594 -0.40615,0.178017 -0.0562,0.09823 -0.3141,0.176789 -0.57425,0.176789 -0.25965,0 -0.51798,0.08594 -0.57376,0.178018 -0.0562,0.09823 -0.26673,0.178017 -0.4689,0.178017 -0.20217,0 -0.45389,0.09823 -0.55912,0.207482 -0.24549,0.266412 -1.32489,0.675237 -1.79115,0.67892 -0.19777,0.0015 -0.40481,0.08594 -0.46048,0.180474 -0.0562,0.09823 -0.23585,0.178015 -0.39993,0.178015 -0.16408,0 -0.39016,0.122777 -0.5021,0.266413 -0.11231,0.146089 -0.41665,0.266412 -0.67643,0.266412 -0.25929,0 -0.47159,0.07366 -0.47159,0.155913 0,0.08594 -0.24025,0.256593 -0.53311,0.379362 -0.96795,0.405144 -3.23463,1.623271 -3.32932,1.789625 -0.0513,0.08594 -0.30568,0.163288 -0.56583,0.163288 -0.25965,0 -0.51797,0.08594 -0.57376,0.178017 -0.0562,0.09823 -0.26319,0.178018 -0.46048,0.179245 -0.19776,0.0011 -0.72856,0.358489 -1.17939,0.794326 -0.45119,0.435834 -0.90105,0.795552 -0.99981,0.798008 -0.0989,0.0023 -0.3163,0.168195 -0.48306,0.368311 -0.16737,0.200115 -0.5662,0.494763 -0.88653,0.655594 -0.32033,0.160836 -0.81084,0.477577 -1.09003,0.702246 -0.27919,0.225898 -0.57999,0.410053 -0.66837,0.410053 -0.0879,0 -0.33437,0.200117 -0.5463,0.444429 -0.21144,0.244314 -0.47158,0.444431 -0.57681,0.444431 -0.10621,0 -0.32558,0.159609 -0.4888,0.354805 -0.16322,0.195206 -0.36404,0.356036 -0.44632,0.356036 -0.0818,0 -0.3915,0.200115 -0.68705,0.444428 -0.29591,0.244314 -0.59805,0.444428 -0.6724,0.444428 -0.0733,0 -0.59989,0.460391 -1.16828,1.02145 -1.47929,1.462689 -2.37819,2.269536 -2.8418,2.552399 -0.22207,0.13628 -0.66484,0.505814 -0.98383,0.822561 -0.31898,0.316749 -0.65873,0.577022 -0.75419,0.578249 -0.0964,0.0011 -0.39102,0.247996 -0.65605,0.548785 -0.26491,0.300788 -0.79533,0.703474 -1.1789,0.89254 -0.75028,0.371996 -6.92844,6.908784 -6.92844,7.330624 0,0.127681 -0.18971,0.424786 -0.42202,0.660505 -0.23182,0.235719 -0.57779,0.730486 -0.76799,1.097569 -0.19069,0.367081 -0.40652,0.66787 -0.48037,0.66787 -0.0733,0 -0.13369,0.122776 -0.13369,0.262729 0,0.144864 -0.18459,0.394093 -0.41006,0.553694 -0.2256,0.15961 -0.41005,0.395321 -0.41005,0.52423 0,0.128906 -0.18459,0.390411 -0.4097,0.583161 -4.08522,5.563111 -5.874334,7.332874 0.77947,1.340407 0.65336,0.279916 1.55715,0.688742 2.00837,0.907273 0.45071,0.218533 2.4065,1.055826 4.34586,1.859728 1.93893,0.804145 3.67348,1.525423 3.85352,1.604119 0.18043,0.07366 0.66007,0.281142 1.0661,0.451793 0.40615,0.169424 0.88567,0.373224 1.0661,0.453024 0.17994,0.07366 1.73011,0.713295 3.44384,1.41186 1.71377,0.698565 3.55846,1.456549 4.09948,1.685638 0.54142,0.229581 1.90663,0.790642 3.03424,1.246489 1.12714,0.456707 2.19728,0.896224 2.37777,0.977253 0.18044,0.08594 1.73012,0.721891 3.44385,1.423401 1.71376,0.702246 3.55845,1.463178 4.09993,1.69239 0.54104,0.228352 1.86947,0.772226 2.95194,1.208062 1.08209,0.435835 3.33285,1.352806 5.00149,2.03848 4.695764,1.927619 4.882034,1.992442 5.714114,1.992442 1.13825,0 2.06589,-0.698564 2.97144,-2.236511 0.39773,-0.676464 0.84941,-1.388902 1.00323,-1.584474 0.47915,-0.607714 1.954851,-3.965731 1.954851,-4.447974 0,-0.143636 0.07325,-0.261501 0.164081,-0.261501 0.09033,0 0.164082,-0.195206 0.164082,-0.43338 0,-0.238174 0.07325,-0.483716 0.163691,-0.543873 0.09033,-0.06139 0.164082,-0.255361 0.164082,-0.433379 0,-0.178017 0.111089,-0.422331 0.245997,-0.545101 0.135383,-0.122776 0.245997,-0.371995 0.245997,-0.557377 0,-0.185385 0.06469,-0.475121 0.145164,-0.644545 0.07935,-0.169423 0.237555,-0.548784 0.350729,-0.842206 0.113539,-0.29342 0.298601,-0.773453 0.411888,-1.065648 0.113539,-0.29342 0.291033,-0.736622 0.395897,-0.98339 0.31545,-0.747674 -0.05615,-2.686095 -0.735637,-3.8367 -0.312396,-0.52914 -0.568027,-1.004263 -0.568027,-1.054599 0,-0.0491 -0.430446,-0.8287 -0.956842,-1.72922 C 92.746562,63.879201 92.33557,63.102554 90.92221,60.276378 90.65314,59.738644 90.3537,59.18986 90.25689,59.056041 90.06364,58.78963 90.07158,58.891529 89.91715,54.85545 89.81339,52.154009 89.73111,51.537456 89.24609,49.879195 89.13255,49.488784 88.9426,48.808637 88.82541,48.368506 c -0.2533,-0.9527 -1.11115,-2.998177 -3.87506,-9.241547 -1.492564,-3.371276 -2.277794,-4.385729 -2.751564,-3.55445 m -48.75661,41.7357 c -0.28224,0.358489 -0.51541,0.826246 -0.51846,1.041092 -0.002,0.214849 -0.0794,0.438292 -0.16896,0.498448 -0.0903,0.06139 -0.16419,0.228353 -0.16419,0.374451 0,0.144862 -0.18459,0.480031 -0.40957,0.74276 -0.2256,0.263958 -0.41006,0.621219 -0.41006,0.794325 0,0.173106 -0.0671,0.454251 -0.14993,0.623674 -0.45388,0.935511 -0.99798,2.333744 -0.99798,2.564799 0,0.146089 -0.1477,0.410054 -0.32826,0.586842 -0.19716,0.193977 -0.32778,0.547557 -0.32778,0.888858 0,0.570883 -0.38174,1.593559 -0.66617,1.783977 -0.0842,0.06139 -0.15406,0.333935 -0.15406,0.61508 0,0.282368 -0.0733,0.562288 -0.16369,0.622448 -0.0903,0.0614 -0.16419,0.41251 -0.16419,0.78082 0,0.36954 -0.0525,0.72803 -0.11719,0.79801 -0.2212,0.2394 -0.70292,1.79932 -0.70292,2.27677 0,0.26273 -0.0733,0.52792 -0.1642,0.58808 -0.0903,0.0614 -0.16419,0.34007 -0.16419,0.62121 0,0.28238 -0.0745,0.56229 -0.16419,0.62245 -0.0903,0.0614 -0.1637,0.36954 -0.1637,0.68751 0,0.31676 -0.10863,0.73295 -0.24109,0.92201 -0.13845,0.19889 -0.24282,0.74154 -0.246,1.27817 -0.002,0.51318 -0.0794,0.93305 -0.16896,0.93305 -0.0903,0 -0.16419,0.42356 -0.16419,0.94165 0,0.51809 -0.0684,1.01777 -0.15174,1.111067 -0.083,0.0982 -0.18628,0.76855 -0.22914,1.50149 -0.0427,0.73416 -0.19203,2.13289 -0.33217,3.11051 -0.3008,2.09693 -0.38882,12.60755 -0.10744,12.79587 0.094,0.0614 0.1642,0.96007 0.1642,2.08649 0,1.08651 0.0696,2.22153 0.15307,2.52207 0.0842,0.30079 0.31008,1.78533 0.5021,3.30032 0.19153,1.51498 0.42508,2.99485 0.51896,3.28779 0.0928,0.29342 0.23181,0.81273 0.30702,1.15527 0.0757,0.34253 0.2251,0.94165 0.33315,1.33279 0.10744,0.39164 0.23001,1.16632 0.27113,1.72394 0.0415,0.56475 0.17751,1.10493 0.30654,1.22158 0.12794,0.1105 0.23217,0.39409 0.23217,0.61998 0,0.22713 0.0733,0.46162 0.16372,0.52178 0.0903,0.0614 0.1642,0.34007 0.1642,0.62244 0,0.28238 0.0745,0.56228 0.16419,0.62245 0.0903,0.0614 0.16372,0.34007 0.16372,0.62121 0,0.28239 0.0696,0.55861 0.15405,0.61509 0.27467,0.18415 0.66581,1.20314 0.67814,1.76716 0.006,0.30201 0.15344,0.79063 0.32607,1.08406 0.17311,0.29342 0.35744,0.65313 0.41006,0.79923 0.0525,0.14732 0.16419,0.40515 0.24769,0.57579 0.083,0.16943 0.15224,0.43093 0.15224,0.57948 0,0.14856 0.0684,0.41005 0.15224,0.58071 0.083,0.16942 0.1951,0.42846 0.2477,0.57578 0.0525,0.14611 0.23708,0.50582 0.40957,0.79924 0.17311,0.29343 0.31984,0.67279 0.32644,0.84467 0.006,0.17065 0.0855,0.31061 0.17603,0.31061 0.0903,0 0.16369,0.11049 0.16369,0.25167 0,0.13874 0.12343,0.51933 0.27383,0.84467 0.15052,0.32534 0.34377,0.74645 0.42911,0.93305 0.33754,0.74399 0.98565,1.97858 1.1214,2.13817 0.0794,0.0982 0.1438,0.27502 0.1438,0.40515 0,0.1289 0.23047,0.51072 0.51187,0.84466 0.57645,0.68628 0.96392,1.42095 0.96392,1.82645 0,0.14976 0.25831,0.61385 0.57413,1.03127 0.31545,0.41742 0.57376,0.82992 0.57376,0.91831 0,0.086 0.22744,0.39411 0.50516,0.68017 0.27784,0.28727 0.65336,0.87288 0.83428,1.30112 0.18091,0.42848 0.47024,0.9441 0.64273,1.14422 0.1725,0.20135 0.31362,0.46407 0.31362,0.58683 0,0.12279 0.14773,0.27134 0.32827,0.33394 0.18044,0.0614 0.32778,0.18662 0.32778,0.27747 0,0.086 0.24683,0.46529 0.54849,0.83115 0.30178,0.36709 0.61539,0.80047 0.69669,0.96375 0.0818,0.16332 0.53617,0.74398 1.00995,1.28958 0.4733,0.54511 0.86089,1.08528 0.86089,1.19824 0,0.29097 6.90014,7.76401 7.29783,7.90309 0.17993,0.0613 0.83122,0.64333 1.44612,1.28911 0.61539,0.64577 1.24262,1.22647 1.39392,1.28908 0.15163,0.0613 0.49234,0.36341 0.75737,0.66664 0.26492,0.30324 0.56009,0.55371 0.65605,0.55616 0.0952,0.002 0.45913,0.28236 0.80729,0.62244 0.34817,0.34007 0.69939,0.61754 0.78032,0.61754 0.0806,0 0.37466,0.21976 0.65202,0.48863 0.27784,0.26886 0.87456,0.71084 1.32669,0.98216 0.45205,0.27132 0.93035,0.6114 1.06341,0.75503 0.13271,0.1437 0.34682,0.26151 0.47598,0.26151 0.12867,0 0.23402,0.0737 0.23402,0.1571 0,0.086 0.24379,0.28237 0.5419,0.43583 0.29775,0.15352 0.67814,0.44199 0.84538,0.6421 0.16665,0.20011 0.43973,0.3634 0.606,0.3634 0.16639,0 0.30262,0.086 0.30262,0.17801 0,0.0983 0.10011,0.17803 0.22073,0.17803 0.34023,0 1.16828,0.48985 1.50009,0.88763 0.16408,0.19642 0.43435,0.35726 0.60074,0.35726 0.16639,0 0.30263,0.086 0.30263,0.17679 0,0.0983 0.14296,0.17802 0.31801,0.17802 0.17517,0 0.35916,0.0737 0.40921,0.15956 0.0842,0.1473 3.10987,1.78926 4.02823,2.1852 0.22561,0.0983 0.61894,0.28973 0.87457,0.42724 0.25527,0.13748 0.56888,0.25045 0.69669,0.25045 0.12795,0 0.23268,0.086 0.23268,0.17802 0,0.0983 0.11232,0.17802 0.2482,0.17802 0.2499,0 0.38528,0.0613 1.33509,0.59666 6.198329,3.42021 23.69457,6.71289 11.047577,4.22165 -0.09274,-0.0183 8.115447,1.66053 13.857503,2.39416 7.871764,1.00573 8.411274,0.46892 8.438374,0.36077 -0.37225,-0.0664 -13.034449,-0.76614 -21.734316,-3.5484 -5.612699,-1.79497 -12.324381,-2.4709 -8.272258,-4.45185 0.05292,-0.0259 0.15701,-0.29832 0.34854,-0.53773 0.19214,-0.2394 0.43178,-0.59299 0.53311,-0.78695 0.10133,-0.19397 1.14264,-1.89853 2.31405,-3.78736 1.17145,-1.88931 2.22735,-3.6335 2.34635,-3.8756 0.11964,-0.24186 0.27297,-0.48128 0.34194,-0.53283 0.0684,-0.0491 0.45694,-0.65313 0.8626,-1.3371 0.40566,-0.68383 0.843194,-1.36728 0.972354,-1.5178 0.12917,-0.15106 0.30836,-0.39901 0.39858,-0.55126 0.5618,-0.949 4.10787,-6.55261 4.32241,-6.83069 0.14198,-0.18416 0.9135,-1.4234 1.25326,-2.01209 0.0903,-0.15711 0.39638,-0.64453 0.68082,-1.08406 0.84356,-1.3064 0.80913,-1.37109 -2.17072,-4.07744 -0.71977,-0.65314 -4.07381,-3.80221 -4.16759,-3.91244 -0.0452,-0.0491 -0.45119,-0.4113 -0.902034,-0.7968 -0.4512,-0.38549 -1.19477,-1.06441 -1.65313,-1.51057 -1.14448,-1.11353 -2.49543,-2.36885 -4.30606,-3.99837 l -1.53106,-1.37823 0.0928,-0.91588 c 0.2765,-2.73065 0.42507,-3.90422 0.66666,-5.27065 0.14734,-0.83115 0.33571,-2.11029 0.41897,-2.84336 0.083,-0.73295 0.19777,-1.58349 0.25441,-1.88932 0.14113,-0.76363 0.15528,-0.76116 -2.79846,-0.56843 -1.44301,0.0982 -2.94795,0.18539 -3.34432,0.20381 l -0.72112,0.0369 -1.21699,-1.86586 c -0.66935,-1.02637 -1.26296,-1.98287 -1.31871,-2.12528 -0.0562,-0.14241 -0.24514,-0.43707 -0.42019,-0.6556 -0.1747,-0.21853 -0.40079,-0.55983 -0.50211,-0.75872 -0.10134,-0.19888 -0.79667,-1.3328 -1.54566,-2.51839 -1.59432,-2.52502 -1.59253,-2.26192 -0.0317,-4.01938 3.98753,-4.48874 3.99152,-4.49635 2.28484,-4.49635 -0.63651,0 -1.46645,-0.086 -1.84469,-0.1817 -0.37819,-0.0982 -1.53635,-0.26273 -2.57372,-0.36095 -3.66949,-0.34866 -3.35716,-0.23694 -4.16274,-1.47323 -0.39199,-0.60158 -0.74138,-1.17247 -0.77592,-1.27093 -0.0342,-0.0982 -0.34634,-0.63103 -0.69316,-1.18596 -0.85198,-1.36435 -0.46182,-1.98667 2.27025,-3.62283 0.77897,-0.46653 2.20082,-1.42291 3.05991,-2.05813 0.51053,-0.37691 0.98431,-0.68628 1.05291,-0.68628 0.0696,0 0.24146,-0.1105 0.38394,-0.25168 0.25831,-0.25045 3.77121,-2.59219 3.88934,-2.59219 0.15126,0 1.46601,-1.11597 1.58458,-1.34567 0.1664,-0.32167 -3.05415,-0.33763 -12.53686,-0.0614 -8.37324,0.24308 -7.47169,0.49598 -9.07748,-2.5448 -0.0903,-0.17064 -0.86345,-1.570467 -1.71818,-3.110867 -0.85466,-1.53979 -1.63679,-2.95987 -1.73764,-3.15545 -0.10133,-0.1952 -0.63748,-1.14054 -1.19269,-2.09888 -0.55521,-0.95884 -1.00946,-1.79245 -1.00946,-1.852 0,-0.0614 -0.10011,-0.23449 -0.22156,-0.38918 -0.12207,-0.15472 -0.39859,-0.64089 -0.61491,-1.08041 -0.21632,-0.43952 -0.43093,-0.83975 -0.47683,-0.88886 -0.13539,-0.14486 -0.98248,-1.584963 -0.98248,-1.67127 0,-0.0491 -0.70072,-1.286758 -1.55759,-2.762827 -0.85686,-1.476067 -1.55803,-2.761353 -1.55803,-2.856746 0,-0.09823 -0.0733,-0.173105 -0.16408,-0.173105 -0.0903,0 -1.034172,-1.204047 -1.034172,-1.308402 0,-0.37936 -1.605374,-1.982162 -1.604211,-3.054414 l 1.822358,-5.760615 -3.088175,6.006324 m 141.301684,1.581638 c -0.28579,0.34253 -0.0467,0.265678 -2.02675,3.602333 -0.20301,0.34253 -0.58,0.974798 -0.83746,1.405721 -0.25744,0.430926 -0.57901,0.971116 -0.71438,1.199467 -1.58813,2.686588 -2.22426,3.713076 -2.33176,3.762916 -0.0707,0.0368 -0.12781,0.13259 -0.12781,0.22221 0,0.13751 -3.2665,5.80901 -5.28771,9.18066 -0.33802,0.56352 -0.66262,1.14422 -0.72195,1.29117 -0.0599,0.14609 -0.35525,0.645777 -0.65738,1.111077 -0.3018,0.46407 -0.549,0.89009 -0.549,0.94533 0,0.0491 -0.18459,0.36218 -0.41006,0.6826 -0.22509,0.32043 -0.40968,0.64087 -0.40968,0.71084 0,0.0737 -0.10377,0.24186 -0.23134,0.38059 -0.12734,0.13751 -0.26283,0.35236 -0.30081,0.47635 -0.0853,0.27746 -1.8531,0.28606 -13.13713,0.0614 l -8.17549,-0.15962 0.21362,0.37077 c 0.11719,0.20379 1.43461,1.14299 2.92762,2.08783 6.81388,4.3128 10.2949,6.67245 10.38956,7.04261 0.0806,0.31429 -0.19141,0.80782 -2.00836,3.64161 -0.92717,1.44537 -0.50479,1.2886 -4.43743,1.65004 -1.12714,0.0982 -2.35919,0.26887 -2.73743,0.36586 -0.37819,0.0982 -1.24526,0.17801 -1.92694,0.17801 -0.79631,0 -1.2391,0.0737 -1.2391,0.19643 0,0.20995 1.50096,1.95979 3.76325,4.38659 1.17891,1.26466 1.35678,1.53034 1.19355,1.78398 -0.10621,0.16329 -0.31325,0.55737 -0.46146,0.87536 -0.1477,0.31674 -0.3296,0.57702 -0.40347,0.57702 -0.0745,0 -0.17701,0.14608 -0.22913,0.3241 -0.0525,0.17803 -0.23268,0.48372 -0.40126,0.68015 -0.16846,0.19645 -0.49943,0.67033 -0.73528,1.05338 -0.23622,0.38305 -0.61441,0.97602 -0.8405,1.31892 -0.2261,0.34253 -0.59501,0.90114 -0.82011,1.24404 -0.22474,0.34252 -0.57512,0.87043 -0.77813,1.1749 -0.20351,0.30447 -0.51493,0.78451 -0.69279,1.06688 -1.11518,1.77232 -1.24793,1.88256 -2.134,1.77562 -2.0057,-0.24307 -6.08132,-0.4174 -6.22729,-0.2664 -0.1,0.0982 -0.0841,0.45425 0.0415,0.96252 0.10864,0.44074 0.19778,1.15526 0.19778,1.58729 0,0.43216 0.0818,1.01041 0.18274,1.28579 0.17518,0.48002 0.39945,1.9076 0.56669,3.61042 0.0439,0.43952 0.19863,1.45693 0.34511,2.26046 0.31361,1.71817 0.37954,1.57293 -1.42266,3.12769 -2.52022,2.17501 -4.69005,4.21927 -5.21604,4.91438 -0.29859,0.3941 -0.8577,0.87292 -1.24262,1.06198 -0.38528,0.1903 -1.10065,0.70592 -1.58989,1.14667 -0.48879,0.43952 -1.62703,1.44979 -2.52906,2.24412 -4.19234,3.69147 -4.17199,3.66704 -3.65309,4.35025 0.0745,0.0983 0.66838,1.00794 1.32003,2.02266 1.41251,2.19806 1.75755,2.72634 2.3959,3.66456 0.26637,0.39041 0.81927,1.2379 1.22847,1.88219 0.4097,0.64455 0.8587,1.27424 0.99799,1.39934 0.1388,0.12522 0.25257,0.3278 0.25257,0.45056 0,0.12277 0.11231,0.32412 0.24903,0.4469 0.13721,0.12278 0.85687,1.14298 1.5992,2.26522 0.74223,1.12336 1.54695,2.33142 1.78807,2.68573 0.24073,0.35481 0.74455,1.16386 1.11958,1.79971 0.37513,0.63594 0.89983,1.47507 1.16656,1.86633 0.26636,0.39042 0.66617,0.99077 0.88824,1.33281 0.22206,0.34252 0.58878,0.90236 0.81487,1.24403 0.22657,0.34253 0.59549,0.90237 0.82011,1.24403 0.22474,0.34252 0.59367,0.90236 0.82012,1.24405 0.22608,0.34253 0.59635,0.92199 0.82231,1.2887 -0.0894,0.44242 -1.03532,-0.50383 -7.51731,3.04437 -1.61414,0.88357 -17.99573,2.85397 -19.01051,3.26815 -2.92189,1.19256 3.60695,1.07664 30.78493,-6.62323 0.15662,-0.086 0.87095,-0.69433 1.03685,-0.69433 0.16589,0 0.20157,0.0395 0.41348,-0.20482 0.21413,-0.24676 0.607,-0.45885 0.84188,-0.46008 0.23217,-0.002 0.35612,-0.31657 0.58171,-0.50683 0.22561,-0.19151 0.57157,-0.34988 0.76934,-0.35112 0.19775,-0.002 0.40211,-0.0737 0.45437,-0.17065 0.12391,-0.2173 1.06085,-0.72189 1.34038,-0.72189 0.11965,0 0.60648,-0.26272 1.08161,-0.58316 0.47561,-0.32042 1.08563,-0.69733 1.35632,-0.83607 0.27075,-0.13994 0.60257,-0.34989 0.73783,-0.46898 0.13539,-0.12278 0.76262,-0.51195 1.39392,-0.87288 0.63174,-0.36095 1.34392,-0.80785 1.58324,-0.992 0.23929,-0.18415 0.50345,-0.33516 0.58658,-0.33516 0.0831,0 0.32424,-0.20011 0.53617,-0.44442 0.21192,-0.24432 0.47159,-0.44443 0.57731,-0.44443 0.10499,0 0.32558,-0.15956 0.48879,-0.35605 0.16322,-0.19519 0.3782,-0.3548 0.47781,-0.3548 0.10011,0 0.3804,-0.20012 0.6237,-0.44443 0.24282,-0.24431 0.54142,-0.44443 0.66313,-0.44443 0.12086,0 0.47108,-0.27992 0.77725,-0.62122 0.30569,-0.34251 0.63969,-0.62244 0.74138,-0.62244 0.10139,0 0.35879,-0.20011 0.57023,-0.44443 0.21191,-0.24433 0.46499,-0.44687 0.5618,-0.45057 0.0965,-0.003 0.80375,-0.64208 1.5704,-1.42008 0.76665,-0.77714 1.47311,-1.41468 1.57044,-1.41567 0.0965,-0.001 0.34951,-0.20256 0.56144,-0.44689 0.21193,-0.24432 0.47818,-0.44443 0.59146,-0.44443 0.11354,0 0.25221,-0.15596 0.30788,-0.34621 0.0562,-0.1903 0.24513,-0.39532 0.42117,-0.45546 0.17567,-0.0613 0.31935,-0.22713 0.31935,-0.37079 0,-0.1424 0.12917,-0.30815 0.28714,-0.36831 0.37562,-0.14239 1.68103,-1.49817 1.68103,-1.74604 0,-0.25537 1.3532,-1.68846 1.59384,-1.68846 0.10377,0 0.23366,-0.15596 0.28932,-0.34621 0.0561,-0.1903 0.25039,-0.39777 0.43217,-0.46038 0.18227,-0.0613 0.46279,-0.34867 0.62368,-0.63474 0.16103,-0.28728 0.6724,-0.9527 1.13642,-1.47985 0.46451,-0.52671 0.8449,-1.02515 0.84588,-1.10617 3.8e-4,-0.086 0.33083,-0.54756 0.73343,-1.03742 0.40262,-0.48863 0.73394,-0.94411 0.73613,-1.01163 0.002,-0.0614 0.29994,-0.49231 0.66045,-0.9441 0.36098,-0.45181 0.65654,-0.87658 0.65689,-0.94409 3.8e-4,-0.0738 0.20351,-0.36342 0.45083,-0.65683 0.52554,-0.62368 1.35852,-2.34628 1.355,-2.80176 -9.9e-4,-0.1731 0.18178,-0.63104 0.40738,-1.01775 0.2256,-0.38674 0.41005,-0.76978 0.41005,-0.8508 0,-0.086 0.25831,-0.41743 0.57377,-0.7489 0.31594,-0.33149 0.57425,-0.69121 0.57425,-0.80048 0,-0.11049 0.14112,-0.36217 0.31363,-0.56351 0.17249,-0.20012 0.46144,-0.71575 0.64187,-1.14423 0.18044,-0.42846 0.52067,-0.9748 0.7565,-1.21543 0.41142,-0.41741 0.91169,-1.31732 0.91169,-1.6391 0,-0.086 0.18459,-0.47021 0.41006,-0.85817 0.2256,-0.38672 0.41006,-0.82501 0.41006,-0.97356 0,-0.14857 0.0733,-0.2701 0.16371,-0.2701 0.0903,0 0.16408,-0.15959 0.16408,-0.35726 0,-0.19644 0.19423,-0.77591 0.43131,-1.2881 0.23755,-0.51319 0.49587,-1.07057 0.57413,-1.24073 0.0782,-0.16942 0.14245,-0.46407 0.14245,-0.65559 0,-0.19029 0.0745,-0.39655 0.16421,-0.45794 0.0903,-0.0614 0.16368,-0.25535 0.16368,-0.43338 0,-0.17801 0.11108,-0.42233 0.24636,-0.54509 0.13477,-0.12278 0.246,-0.44566 0.246,-0.72189 0,-0.27501 0.0733,-0.55002 0.16372,-0.61017 0.0903,-0.0614 0.16408,-0.42112 0.16408,-0.79924 0,-0.37936 0.0733,-0.73908 0.16419,-0.79924 0.0903,-0.0614 0.16369,-0.29588 0.16369,-0.52177 0,-0.22713 0.11108,-0.51195 0.24636,-0.6335 0.13477,-0.12278 0.246,-0.44688 0.246,-0.72188 0,-0.27624 0.0733,-0.55002 0.16371,-0.6114 0.0903,-0.0614 0.16421,-0.34007 0.16421,-0.62245 0,-0.28115 0.0733,-0.56106 0.16407,-0.62122 0.0903,-0.0614 0.16371,-0.41497 0.16371,-0.78818 0,-0.38674 0.1062,-0.77346 0.24635,-0.89991 0.14734,-0.13259 0.24599,-0.52178 0.24599,-0.96988 0,-0.83975 0.2831,-2.6661 0.49771,-3.20678 0.077,-0.1952 0.17701,-0.71575 0.22073,-1.15527 0.0439,-0.43952 0.18679,-1.43923 0.31764,-2.22116 0.13087,-0.78204 0.27821,-2.38173 0.32741,-3.55481 0.0501,-1.17246 0.17518,-2.55523 0.27956,-3.07159 0.41274,-2.03799 -0.24378,-15.21556 -0.81572,-16.37378 -0.094,-0.19029 -0.17163,-0.832377 -0.17163,-1.425357 0,-0.59299 -0.0647,-1.07793 -0.14517,-1.07793 -0.17126,0 -0.33839,-0.77468 -0.45877,-2.12957 -0.0476,-0.53528 -0.18971,-1.13318 -0.31543,-1.32789 -0.1255,-0.19521 -0.22866,-0.6114 -0.22866,-0.92569 0,-0.31429 -0.0732,-0.62122 -0.16371,-0.68138 -0.0903,-0.0614 -0.16407,-0.34498 -0.16407,-0.63227 0,-0.28728 -0.0745,-0.523 -0.16421,-0.523 -0.0902,0 -0.16638,-0.29956 -0.16895,-0.66664 -0.004,-0.36709 -0.11354,-0.82134 -0.246,-1.01163 -0.1327,-0.1903 -0.24109,-0.52546 -0.24109,-0.74399 0,-0.21976 -0.0732,-0.44934 -0.16369,-0.51073 -0.0903,-0.0614 -0.16408,-0.34007 -0.16408,-0.62244 0,-0.282373 -0.0733,-0.562289 -0.16408,-0.622447 -0.0903,-0.06139 -0.16373,-0.270095 -0.16373,-0.466529 0,-0.196432 -0.18457,-0.618763 -0.41005,-0.939192 -0.26456,-0.375679 -0.41006,-0.812742 -0.41006,-1.232493 0,-0.357263 -0.0733,-0.649457 -0.16419,-0.649457 -0.0903,0 -0.16372,-0.122776 -0.16372,-0.270095 0,-0.148557 -0.18434,-0.586843 -0.41007,-0.974797 -0.2256,-0.386727 -0.40871,-0.84466 -0.40736,-1.017767 0.004,-0.383044 -0.79497,-2.131908 -1.19172,-2.611328 -0.15748,-0.190293 -0.28664,-0.521775 -0.28664,-0.736621 0,-0.213621 -0.11109,-0.488627 -0.24599,-0.61017 -0.1355,-0.122777 -2.11235,-5.482419 -2.11235,-5.617465 0,-0.233814 0.31711,2.351762 0.42987,4.293853 0.0595,1.02538 0.0621,1.871382 -0.069,2.028343 m -69.28116,9.383345 c -0.10253,0.0737 -0.50918,0.77836 -0.90203,1.5706 -0.39284,0.79187 -0.9909,1.96507 -1.32933,2.60605 -0.3379,0.64086 -0.6149,1.28762 -0.6149,1.43727 0,0.14979 -0.077,0.32289 -0.17065,0.3855 -0.2549,0.17065 -0.97724,1.4622 -0.97724,1.74752 0,0.13628 -0.11109,0.34867 -0.24599,0.47021 -0.13538,0.12278 -0.246,0.36095 -0.246,0.53282 0,0.17188 -0.10986,0.41006 -0.2433,0.53037 -0.24903,0.22345 -1.23247,2.08784 -1.23247,2.33571 0,0.0737 -0.211448,0.481257 -0.470227,0.901137 -0.258318,0.4211 -0.602952,1.08406 -0.766166,1.47508 -0.78301,1.87839 -1.573526,2.91445 -2.315808,3.03476 -0.385763,0.0614 -0.786545,0.22468 -0.890556,0.36095 -0.126105,0.16452 -0.543732,0.248 -1.246166,0.248 -0.581332,0 -1.217843,0.0982 -1.414707,0.20871 -0.19726,0.1105 -0.87505,0.27132 -1.50628,0.34621 -1.69872,0.20258 -3.54121,0.62613 -4.0999,0.94165 -0.27737,0.15714 -0.89886,0.27868 -1.42533,0.27868 -0.51321,9.9e-4 -0.97858,0.086 -1.03424,0.17925 -0.0562,0.0982 -0.595504,0.18048 -1.198804,0.18417 -0.64018,0.003 -1.26785,0.11049 -1.50717,0.26027 -0.2256,0.13995 -0.67594,0.25659 -1.00067,0.26027 -1.47665,0.0123 -2.06854,0.74767 -1.25458,1.55034 0.20301,0.20012 0.57511,0.65437 0.8272,1.00917 0.25174,0.35481 0.56534,0.64578 0.6967,0.64578 0.13134,0 0.23928,0.086 0.23928,0.20011 0,0.1105 0.35036,0.59913 0.77861,1.08529 1.06964,1.21542 2.248584,2.58543 3.320914,3.8588 0.49636,0.58929 1.63146,1.89177 2.5224,2.89468 3.33152,3.7499 3.94908,4.80033 3.25852,5.54002 -0.15661,0.16697 -0.53091,4.04 -0.63748,6.59093 -0.0598,1.43396 -0.15052,2.03664 -0.33974,2.26389 -0.18445,0.22099 -0.29323,0.88395 -0.38003,2.31115 -0.0659,1.10126 -0.20351,2.22693 -0.30434,2.50206 -0.10134,0.27501 -0.18325,1.33477 -0.18325,2.35486 v 1.85445 h 0.49417 c 0.27163,0 0.62247,-0.0737 0.77898,-0.16574 0.65909,-0.38551 1.41603,-0.72189 1.62041,-0.72189 0.12087,0 0.31143,-0.15961 0.42422,-0.35603 0.112316,-0.19521 0.304832,-0.35481 0.427274,-0.35481 0.211448,0 1.0882,-0.37322 1.705349,-0.72557 0.156615,-0.086 0.36721,-0.16329 0.468044,-0.16329 0.101337,0 0.40298,-0.20012 0.671061,-0.44443 0.267591,-0.24431 0.629919,-0.44443 0.804613,-0.44443 0.174697,0 0.445947,-0.0736 0.602578,-0.16452 0.15661,-0.086 0.641024,-0.3413 1.076719,-0.55614 0.435694,-0.21484 0.831223,-0.50091 0.87859,-0.63472 0.04759,-0.13383 0.26405,-0.24432 0.481354,-0.24432 0.216784,0 0.522488,-0.0736 0.678998,-0.17064 0.15661,-0.0982 0.62333,-0.33026 1.03692,-0.52424 0.41408,-0.19397 0.84711,-0.47757 0.96306,-0.62858 0.11598,-0.15101 0.34378,-0.27501 0.50566,-0.27501 0.16199,0 0.50343,-0.1105 0.75907,-0.2566 2.06325,-1.13807 2.27159,-1.14544 4.19416,-0.14732 0.42824,0.22222 0.8914,0.40392 1.03033,0.40392 0.13844,0 0.29322,0.12277 0.34377,0.26027 0.0513,0.14242 0.25124,0.30815 0.44595,0.36709 0.32643,0.0982 1.09625,0.45301 1.78675,0.82009 0.1566,0.086 0.37295,0.15102 0.48135,0.15102 0.10743,0 0.34902,0.14609 0.53531,0.32288 0.18603,0.17678 0.67056,0.46531 1.07623,0.64086 0.40615,0.17434 0.86614,0.38918 1.02276,0.47758 0.15662,0.086 0.39102,0.15961 0.52017,0.15961 0.12954,0 0.45523,0.20011 0.72331,0.44443 0.26759,0.24431 0.60123,0.44443 0.74053,0.44443 0.13977,0 0.29945,0.086 0.35524,0.17802 0.0561,0.0982 0.27261,0.17801 0.48136,0.17801 0.20923,0 0.47243,0.12279 0.58438,0.26642 0.11231,0.14611 0.37733,0.2664 0.58828,0.2664 0.21633,0 0.46098,0.1547 0.55962,0.35481 0.0965,0.19521 0.2726,0.35604 0.39065,0.35604 0.2008,0 0.96122,0.34007 1.6164,0.72311 0.36992,0.21608 1.22628,0.21363 1.35015,-0.003 0.16323,-0.28605 -0.20874,-4.41101 -0.43666,-4.8439 -0.11842,-0.22345 -0.26759,-1.28676 -0.33218,-2.36211 -0.2831,-4.69817 -0.39906,-6.06497 -0.53483,-6.30327 -0.0794,-0.13875 -0.19544,-0.98708 -0.25829,-1.88367 -0.0623,-0.89623 -0.20974,-2.03602 -0.32694,-2.53263 -0.29103,-1.22931 0.0231,-1.73978 3.28773,-5.35845 0.40616,-0.44933 0.85956,-0.97479 1.0086,-1.16754 0.14871,-0.19275 0.44375,-0.51686 0.65556,-0.72066 0.66045,-0.63594 3.48899,-3.99201 3.74556,-4.44454 0.13404,-0.23571 0.3738,-0.47512 0.53262,-0.52914 0.15917,-0.0491 0.28933,-0.16574 0.28933,-0.24677 0,-0.086 0.52066,-0.72803 1.1563,-1.43826 1.42753,-1.59355 1.53724,-2.28586 0.40166,-2.53177 -0.36099,-0.0737 -0.95112,-0.22835 -1.3121,-0.33271 -0.3605,-0.11049 -1.13557,-0.22712 -1.72171,-0.27255 -0.5862,-0.0491 -1.13603,-0.15468 -1.22183,-0.24431 -0.0853,-0.086 -0.65251,-0.16329 -1.25943,-0.16329 -0.74541,0 -1.18024,-0.086 -1.34128,-0.25781 -0.24195,-0.26274 -2.12515,-0.71698 -4.04903,-0.97603 -0.58658,-0.0737 -1.27404,-0.23327 -1.52796,-0.34375 -0.25392,-0.1105 -0.88128,-0.20257 -1.39392,-0.20503 -0.5463,-0.003 -1.06036,-0.1105 -1.24128,-0.25905 -0.16993,-0.13995 -0.637,-0.30693 -1.03792,-0.372 -0.54812,-0.086 -0.77285,-0.22343 -0.90592,-0.54018 -0.0977,-0.23204 -0.23975,-0.42233 -0.31533,-0.42233 -0.0757,0 -0.14014,-0.0982 -0.14332,-0.22221 -0.008,-0.2922 -0.46316,-1.28775 -1.00019,-2.18372 -0.23621,-0.3941 -0.59586,-1.11353 -0.79887,-1.59933 -0.203,-0.484947 -0.42421,-0.922007 -0.49148,-0.971117 -0.0672,-0.0491 -0.45083,-0.76854 -0.85198,-1.59933 -0.40127,-0.83115 -1.00115,-2.01834 -1.33242,-2.63871 -0.33181,-0.61999 -0.60294,-1.23016 -0.60294,-1.35575 0,-0.12523 -0.11355,-0.32903 -0.25172,-0.45425 -0.13831,-0.12523 -0.50698,-0.80169 -0.81877,-1.50394 -0.31191,-0.70225 -0.78923,-1.60989 -1.06036,-2.0154 -0.27127,-0.40514 -0.49332,-0.8422 -0.49332,-0.96989 0,-0.49844 -0.53042,-0.798004 -0.92547,-0.523"
         stroke="none"
         fill="#04b3ea"
         fill-rule="evenodd"
         style="display:inline;mix-blend-mode:overlay;fill:#ad0a0a;fill-opacity:1;stroke:#000000;stroke-width:0.460519;stroke-opacity:1;enable-background:new"
         sodipodi:nodetypes="ccccccccccccscccccsccssccscsccccccsccccccccscccccsscccccscccscscssccccccccccsscscccsccsssccssscscscscscscccscscscscscscscscccccscsccccccccccscccscscscccscssccscccccscscssscsccscccsccsscscccccccscccccccsccssscscscccccscccccccccccscscscscscscscscsccssccccscccccccscscscccccsccccsscccscscscccscscccscccccsscccssccssscssscccssscsscsscscccccccccccccccccccccccccsccsccsccccscsccccccscssssssscccccsccscccscsccccccccccsssccsccccccccccscccccccccccccsccccccccccsscscccccsccccsssscscscscccsssccscssccccccscsccsscscscscsssscscscscscscscscscsccsccsssccscssccscscscsssccsscssccccscscscsccccsccccccccccssccccccccscscscscscscscsccssccscccscccscscscscsccccccccccccscccccsccsccccscsccccscccsc" />
    </g>
    <g
       id="g893"
       transform="matrix(1,0,0,0.60052937,-0.91475733,-2.532643)">
      <path
         inkscape:connector-curvature="0"
         id="path906"
         d="m 768.506,202.73974 -1.85965,4.31387 2.79235,2.52811 2.7936,-2.57519 -1.85965,-4.31387 z"
         style="display:inline;fill:#55ddff;fill-opacity:1;stroke:none;stroke-width:0.3;stroke-linecap:butt;stroke-linejoin:miter;stroke-miterlimit:4;stroke-dasharray:none;stroke-opacity:1"
         transform="translate(-736.85718,-157.93361)" />
      <ellipse
         transform="matrix(1.6688888,0,0,0.42174292,-1250.6073,-36.4899)"
         ry="2.1655145"
         rx="8.6178637"
         cy="210.39894"
         cx="769.60504"
         id="path4690"
         style="display:inline;opacity:0.227;fill:#000000;fill-opacity:1;stroke:none;stroke-width:0.4;stroke-linecap:round;stroke-linejoin:round;stroke-miterlimit:4;stroke-dasharray:none;stroke-opacity:1;filter:url(#filter5292)" />
      <g
         id="g5367"
         transform="matrix(1.1491056,0,0,1,-4.2486767,1.2889609)">
        <g
           id="g5310">
          <g
             style="display:inline;opacity:1;fill:url(#linearGradient4684);fill-opacity:1"
             id="g4654"
             transform="translate(-736.85718,-157.93361)">
            <path
               style="fill:#000000;fill-opacity:1;stroke:none;stroke-width:0.3;stroke-linecap:round;stroke-linejoin:round;stroke-miterlimit:4;stroke-dasharray:none;stroke-opacity:1"
               d="m 744.1643,190.4709 c 16.8024,-4.75145 33.6048,-5.24353 50.4072,0 l -25.1328,19.11082 z"
               id="path868"
               inkscape:connector-curvature="0"
               sodipodi:nodetypes="cccc" />
            <g
               id="g4602"
               transform="translate(736.85718,157.93361)"
               style="fill:#000000;fill-opacity:1;stroke:none">
              <g
                 style="display:inline;fill:#000000;fill-opacity:1;stroke:none"
                 id="g38"
                 transform="translate(-736.85718,-157.93361)">
                <ellipse
                   style="fill:#000000;fill-opacity:1;stroke:none;stroke-width:0.3;stroke-linecap:round;stroke-linejoin:round;stroke-miterlimit:4;stroke-dasharray:none;stroke-opacity:1"
                   id="path866"
                   cx="769.11761"
                   cy="182.61378"
                   rx="25.577351"
                   ry="7.6574945" />
              </g>
              <path
                 transform="translate(-736.85718,-157.93361)"
                 sodipodi:nodetypes="cccc"
                 inkscape:connector-curvature="0"
                 id="path864"
                 d="m 781.57388,176.12989 -1.48403,-9.03934 c -4.0353,-4.27995 -17.74609,-3.97922 -22.11226,0 l -1.27871,9.07059"
                 style="display:inline;fill:#000000;fill-opacity:1;stroke:none;stroke-width:0.3;stroke-linecap:round;stroke-linejoin:round;stroke-miterlimit:4;stroke-dasharray:none;stroke-opacity:1" />
            </g>
          </g>
          <path
             sodipodi:nodetypes="cccc"
             inkscape:connector-curvature="0"
             id="path872-7"
             d="m 779.38479,194.42173 c -2.56337,6.91161 -5.80793,7.4655 -9.01214,8.39593 l 1.85965,4.31387 c 0,0 7.95289,-3.10134 7.15249,-12.7098 z"
             style="display:inline;fill:#ffffff;fill-opacity:1;stroke:none;stroke-width:0.3;stroke-linecap:round;stroke-linejoin:round;stroke-miterlimit:4;stroke-dasharray:none;stroke-opacity:1"
             transform="translate(-736.85718,-157.93361)" />
          <path
             sodipodi:nodetypes="cccc"
             inkscape:connector-curvature="0"
             id="path872"
             d="m 759.49386,194.46881 c 2.56337,6.91161 5.80793,7.4655 9.01214,8.39593 l -1.85965,4.31387 c 0,0 -7.95289,-3.10134 -7.15249,-12.7098 z"
             style="display:inline;fill:#ffffff;fill-opacity:1;stroke:none;stroke-width:0.3;stroke-linecap:round;stroke-linejoin:round;stroke-miterlimit:4;stroke-dasharray:none;stroke-opacity:1"
             transform="translate(-736.85718,-157.93361)" />
        </g>
        <g
           id="g4609"
           transform="translate(2.6542,23.97753)"
           style="stroke:none">
          <path
             style="fill:#ffffff;fill-opacity:1;stroke:none;stroke-width:0.3;stroke-linecap:round;stroke-linejoin:round;stroke-miterlimit:4;stroke-dasharray:none;stroke-opacity:1"
             d="m 17.1875,-5.75 v 2.8125002 c 7.143654,2.41809319 14.924928,2.98621109 24.875,0 V -5.78125 C 34.048398,-3.5020143 25.79042,-3.2012507 17.1875,-5.75 Z"
             id="path4613"
             inkscape:connector-curvature="0"
             sodipodi:nodetypes="ccccc" />
        </g>
      </g>
    </g>
  </g>
</svg>
